<svg width="32" height="32" xmlns="http://www.w3.org/2000/svg">
 <!-- Created with Method Draw - http://github.com/duopixel/Method-Draw/ -->

 <g>
  <title>Layer 1</title>
  <rect id="svg_15" height="1.893096" width="5.734967" y="17.047673" x="14.312756" stroke-opacity="null" stroke-width="0" stroke="#fff" fill="#191919"/>
  <ellipse stroke="#fff" ry="4.036748" rx="4.871938" id="svg_17" cy="21.696894" cx="17.18024" stroke-opacity="null" stroke-width="0" fill="#191919"/>
  <path id="svg_26" d="m8.708569,1.012038c0.445435,0.278396 -0.320156,10.96882 -0.193903,15.503828c0.126253,4.535009 2.424972,3.972509 3.765173,4.128134c2.609433,-0.222717 10.816986,0.400705 11.26242,-0.267446c0.445434,-0.668152 1.146266,-0.743878 1.703059,-0.767633c0.556793,-0.023755 2.39421,-0.055679 2.39421,0.890869c0,0.946548 0.23831,6.468823 -0.047883,7.382518c-0.286192,0.913696 -3.607659,0.436337 -4.053093,0.157941c-0.445434,-0.278397 -0.083898,-1.874487 -0.496651,-3.422387c-2.060133,0.167039 -14.711209,1.097247 -17.153302,0.796023c-3.404233,-0.088532 -3.41611,-5.192492 -3.463994,-5.215319c0.047884,-1.424834 0.381959,-19.107798 0.334076,-19.097997c0.890869,-0.458141 4.669264,-0.032852 5.949888,-0.088531z" stroke-opacity="null" stroke-width="0" stroke="#fff" fill="#191919"/>
  <ellipse ry="2" rx="2.123205" id="svg_9" cy="9.888233" cx="17.180241" stroke-width="0" stroke="#fff" fill="#191919"/>
  <path id="svg_10" d="m17.125758,10.20129c0,0 -6.060028,-0.895329 -7.624649,-0.764705c-0.66255,0.203452 -0.777341,0.764362 -0.777341,1.436631c0,0.672269 1.90339,0.672612 1.897789,0.636199c0.005601,0.036413 6.504201,-0.299721 6.4986,-0.336135c0.005601,0.036414 6.392156,0.540616 6.504201,0.540616c0.112045,0 1.40056,0.280112 1.848739,-0.728292c0.44818,-1.008403 -0.062198,-1.401246 -1.070027,-1.549019c-1.107984,-0.019266 -7.277312,0.764705 -7.277312,0.764705z" stroke-opacity="null" stroke-width="0" stroke="#fff" fill="#191919"/>
  <rect id="svg_11" height="3.786192" width="2.394209" y="11.257027" x="15.983137" stroke-opacity="null" stroke-width="0" stroke="#fff" fill="#191919"/>
  <rect id="svg_12" height="3.563475" width="4.064588" y="14.486426" x="15.147946" stroke-opacity="null" stroke-width="0" stroke="#fff" fill="#191919"/>
  <rect id="svg_13" height="1.670379" width="4.788419" y="16.54656" x="14.786031" stroke-opacity="null" stroke-width="0" stroke="#fff" fill="#191919"/>
  <path id="svg_19" d="m20.682297,22.114489" opacity="0.5" fill-opacity="null" stroke-opacity="null" stroke-width="0" stroke="#fff" fill="#191919"/>
  <path id="svg_20" d="m15.671161,23.228075" opacity="0.5" fill-opacity="null" stroke-opacity="null" stroke-width="0" stroke="#fff" fill="#191919"/>
  <path id="svg_25" d="m7.931739,20.666827" opacity="0.5" fill-opacity="null" stroke-opacity="null" stroke-width="0" stroke="#fff" fill="#191919"/>
 </g>
</svg>