<svg xmlns="http://www.w3.org/2000/svg" viewBox="0 0 501 311.4"><defs><style>.cls-1{fill:none;}.cls-1,.cls-2{stroke:#bf001a;stroke-miterlimit:10;}</style></defs><title>board</title><g id="图层_2" data-name="图层 2"><path class="cls-1" d="M310,110c0-10,53-10,53-10h-1.4c4.62,0,8.4-2.7,8.4-6V56c0-3.3-3.78-6-8.4-6H238.4c-4.62,0-8.4,2.7-8.4,6V94c0,3.3,3.78,6,8.4,6H237s53,0,53,10" transform="translate(-49.5 -49.5)"/><path class="cls-2" d="M320,185c6.93,0,69.41-4,83.06-4.83a9.64,9.64,0,0,0,4.55-1.4h0c3.19-2.05,3.19-5.49,0-7.54h0a9.64,9.64,0,0,0-4.55-1.4C389.41,169,326.93,165,320,165c-10,0-20-15-20-15s-10,15-20,15c-6.93,0-69.41,4-83.06,4.83a9.64,9.64,0,0,0-4.55,1.4h0c-3.19,2.05-3.19,5.49,0,7.54h0a9.64,9.64,0,0,0,4.55,1.4C210.59,181,273.07,185,280,185c10,0,20,15,20,15S310,185,320,185Z" transform="translate(-49.5 -49.5)"/><path class="cls-2" d="M460,225c6.93,0,69.41-4,83.06-4.83a9.64,9.64,0,0,0,4.55-1.4h0c3.19-2.05,3.19-5.49,0-7.54h0a9.64,9.64,0,0,0-4.55-1.4C529.41,209,466.93,205,460,205c-10,0-20-15-20-15s-10,15-20,15c-6.93,0-69.41,4-83.06,4.83a9.64,9.64,0,0,0-4.55,1.4h0c-3.19,2.05-3.19,5.49,0,7.54h0a9.64,9.64,0,0,0,4.55,1.4C350.59,221,413.07,225,420,225c10,0,20,15,20,15S450,225,460,225Z" transform="translate(-49.5 -49.5)"/><path class="cls-2" d="M180,225c6.93,0,69.41-4,83.06-4.83a9.64,9.64,0,0,0,4.55-1.4h0c3.19-2.05,3.19-5.49,0-7.54h0a9.64,9.64,0,0,0-4.55-1.4C249.41,209,186.93,205,180,205c-10,0-20-15-20-15s-10,15-20,15c-6.93,0-69.41,4-83.06,4.83a9.64,9.64,0,0,0-4.55,1.4h0c-3.19,2.05-3.19,5.49,0,7.54h0a9.64,9.64,0,0,0,4.55,1.4C70.59,221,133.07,225,140,225c10,0,20,15,20,15S170,225,180,225Z" transform="translate(-49.5 -49.5)"/><path class="cls-2" d="M320,265c6.93,0,69.41-4,83.06-4.83a9.64,9.64,0,0,0,4.55-1.4h0c3.19-2,3.19-5.49,0-7.54h0a9.64,9.64,0,0,0-4.55-1.4C389.41,249,326.93,245,320,245c-10,0-20-15-20-15s-10,15-20,15c-6.93,0-69.41,4-83.06,4.83a9.64,9.64,0,0,0-4.55,1.4h0c-3.19,2.05-3.19,5.49,0,7.54h0a9.64,9.64,0,0,0,4.55,1.4C210.59,261,273.07,265,280,265c10,0,20,15,20,15S310,265,320,265Z" transform="translate(-49.5 -49.5)"/><path class="cls-2" d="M460,305c6.93,0,69.41-4,83.06-4.83a9.64,9.64,0,0,0,4.55-1.4h0c3.19-2,3.19-5.49,0-7.54h0a9.64,9.64,0,0,0-4.55-1.4C529.41,289,466.93,285,460,285c-10,0-20-15-20-15s-10,15-20,15c-6.93,0-69.41,4-83.06,4.83a9.64,9.64,0,0,0-4.55,1.4h0c-3.19,2-3.19,5.49,0,7.54h0a9.64,9.64,0,0,0,4.55,1.4C350.59,301,413.07,305,420,305c10,0,20,15,20,15S450,305,460,305Z" transform="translate(-49.5 -49.5)"/><path class="cls-2" d="M180,305c6.93,0,69.41-4,83.06-4.83a9.64,9.64,0,0,0,4.55-1.4h0c3.19-2,3.19-5.49,0-7.54h0a9.64,9.64,0,0,0-4.55-1.4C249.41,289,186.93,285,180,285c-10,0-20-15-20-15s-10,15-20,15c-6.93,0-69.41,4-83.06,4.83a9.64,9.64,0,0,0-4.55,1.4h0c-3.19,2-3.19,5.49,0,7.54h0a9.64,9.64,0,0,0,4.55,1.4C70.59,301,133.07,305,140,305c10,0,20,15,20,15S170,305,180,305Z" transform="translate(-49.5 -49.5)"/><path class="cls-2" d="M320,345c6.93,0,69.41-4,83.06-4.83a9.64,9.64,0,0,0,4.55-1.4h0c3.19-2,3.19-5.49,0-7.54h0a9.64,9.64,0,0,0-4.55-1.4C389.41,329,326.93,325,320,325c-10,0-20-15-20-15s-10,15-20,15c-6.93,0-69.41,4-83.06,4.83a9.64,9.64,0,0,0-4.55,1.4h0c-3.19,2-3.19,5.49,0,7.54h0a9.64,9.64,0,0,0,4.55,1.4C210.59,341,273.07,345,280,345c10,0,20,15,20,15S310,345,320,345Z" transform="translate(-49.5 -49.5)"/></g></svg>